<?xml version="1.0" encoding="UTF-8"?>
<!DOCTYPE svg PUBLIC "-//W3C//DTD SVG 1.1//EN" "http://www.w3.org/Graphics/SVG/1.1/DTD/svg11.dtd">
<!-- Creator: CorelDRAW -->
<svg xmlns="http://www.w3.org/2000/svg" xml:space="preserve" width="659.426mm" height="245.108mm" style="shape-rendering:geometricPrecision; text-rendering:geometricPrecision; image-rendering:optimizeQuality; fill-rule:evenodd; clip-rule:evenodd"
viewBox="0 0 1801.25 669.521"
 xmlns:xlink="http://www.w3.org/1999/xlink">
 <defs>
  <style type="text/css">
   <![CDATA[
    .fil0 {fill:#999999}
   ]]>
  </style>
 </defs>
 <g id="Слой_x0020_1">
  <metadata id="CorelCorpID_0Corel-Layer"/>
  <path class="fil0" d="M1475.35 511.377l0 22.4983 19.0489 0 0 13.9688 -19.0489 0 0 22.8343c0,5.14895 0.242288,8.46231 0.747895,9.94007 0.484575,1.45454 1.39336,2.61873 2.74684,3.49173 1.77769,1.18685 3.79766,1.76867 6.10035,1.76867 4.06043,0 8.10065,-1.45509 12.1201,-4.38794l0 14.0368c-3.43354,1.7908 -6.54449,3.04403 -9.31209,3.78318 -2.78754,0.71621 -5.79742,1.07459 -9.02938,1.07459 -3.67638,0 -6.90834,-0.515168 -9.73657,-1.54496 -2.82824,-1.02952 -5.23199,-2.48461 -7.21181,-4.38767 -1.99921,-1.90279 -3.37318,-3.93997 -4.14101,-6.06675 -0.787776,-2.14917 -1.17156,-5.26067 -1.17156,-9.31291l0 -31.2291 -8.86767 0 0 -12.5812c3.15138,-1.14178 5.85806,-2.77606 8.10011,-4.90257 2.26281,-2.10438 4.06016,-4.65591 5.41364,-7.63411 1.37369,-2.97738 2.30296,-6.76029 2.82824,-11.3493l11.4129 0zm-42.4205 20.9315l0 48.4662c0,2.30569 0.101067,3.73838 0.343354,4.25355 0.242834,0.537294 0.666496,0.940196 1.2729,1.2311 0.605855,0.268783 1.97927,0.425574 4.1208,0.425574l3.19153 0 0 12.6481 -36.5827 0 0 -12.6481 3.15165 0c2.03991,0 3.35296,-0.134665 3.93861,-0.380503 0.565702,-0.224259 0.98991,-0.627161 1.27235,-1.20925 0.262774,-0.559419 0.404268,-1.70148 0.404268,-3.40241l0 -31.2966 -8.76687 0 0 -12.3124c3.13089,-0.178916 6.12083,-0.559966 8.96901,-1.11938 2.86812,-0.582091 5.41364,-1.2535 7.6759,-2.03745 1.45454,-0.514622 3.25217,-1.38762 5.37348,-2.61845l5.63571 0zm-9.59508 -29.2597c2.9894,0 5.55486,1.16446 7.65596,3.51467 2.12104,2.32836 3.17159,5.17162 3.17159,8.48443 0,3.38028 -1.05055,6.22354 -3.17159,8.57403 -2.1011,2.32864 -4.66656,3.49255 -7.65596,3.49255 -2.98967,0 -5.55513,-1.16391 -7.65568,-3.49255 -2.12131,-2.35049 -3.17159,-5.17135 -3.17159,-8.50711 0,-3.26829 1.09098,-6.111 3.25244,-8.48416 2.16119,-2.39556 4.68623,-3.58187 7.57483,-3.58187zm-68.2767 100.471c-2.10137,1.8132 -3.43464,3.17897 -4.00007,4.11916 -0.565702,0.940469 -0.868903,1.97026 -0.868903,3.11177 0,2.12705 1.59604,3.80585 4.74741,5.01456 3.1511,1.20925 7.19132,1.79107 12.1204,1.79107 3.59552,0 6.76684,-0.335706 9.53416,-1.02979 2.7676,-0.716483 4.60592,-1.56708 5.49476,-2.57448 0.605855,-0.649014 0.88857,-1.54469 0.88857,-2.6862 0,-1.25378 -0.585642,-2.32836 -1.75747,-3.17897 -1.19177,-0.851148 -4.06016,-1.58948 -8.58495,-2.19425l-17.5739 -2.37289zm8.56419 -58.6978c-2.52476,0 -4.60537,1.03034 -6.24157,3.08992 -1.63647,2.05931 -2.44418,4.83537 -2.44418,8.32792 0,3.24589 0.787776,5.82009 2.36305,7.74583 1.57582,1.92492 3.61601,2.88751 6.10089,2.88751 2.44418,0 4.48464,-1.00766 6.12056,-3.00005 1.63619,-1.96999 2.46467,-4.54446 2.46467,-7.70075 0,-3.49255 -0.788049,-6.26834 -2.34339,-8.28285 -1.55561,-2.03718 -3.55537,-3.06752 -6.02004,-3.06752zm16.8072 -7.14106l15.0707 -0.13767 0.0527187 5.5961c0.000819462,0.085224 -7.49261,0.273427 -9.76115,0.335979 -0.0947844,0.00300469 1.18849,1.81402 1.43706,2.28657 2.01888,3.83863 3.03802,7.51037 3.03802,11.0149 0,3.82798 -1.07076,7.56636 -3.2325,11.216 -2.14098,3.62612 -5.13065,6.44698 -8.92776,8.46203 -3.81842,1.99238 -8.38364,2.99978 -13.6962,2.99978 -1.55534,0 -3.09046,-0.0898676 -4.64607,-0.290909 -1.57582,-0.201861 -3.13062,-0.493043 -4.70617,-0.873273 -1.07104,0.738608 -1.8793,1.45482 -2.42479,2.1489 -0.565155,0.694357 -0.848143,1.3655 -0.848143,1.96999 0,1.36577 1.27262,2.2385 3.79766,2.61927l24.5027 3.87278c7.29266,1.14178 12.5648,3.31363 15.7968,6.49205 3.23223,3.24643 4.84821,7.09654 4.84821,11.5517 0,3.9397 -1.21226,7.56636 -3.65616,10.9245 -2.44418,3.33548 -6.44397,6.08915 -11.9991,8.21592 -5.53492,2.14917 -12.5241,3.22376 -20.9678,3.22376 -7.41367,0 -13.5542,-0.806077 -18.4024,-2.39529 -4.86815,-1.58948 -8.30224,-3.60454 -10.3424,-6.04462 -2.01997,-2.41741 -3.03037,-4.72338 -3.03037,-6.91735 0,-2.48515 0.747349,-4.72338 2.26253,-6.71631 1.5354,-1.99211 4.64607,-4.27568 9.39294,-6.84988 -2.92876,-1.18631 -5.11044,-2.61927 -6.56471,-4.32048 -1.98009,-2.28357 -2.96946,-4.63433 -2.96946,-7.02962 0,-2.61955 0.909056,-5.19375 2.74711,-7.74555 1.83833,-2.52968 4.58516,-5.03696 8.26209,-7.54478 -2.0604,-1.38762 -3.65644,-2.90964 -4.82827,-4.54446 -1.15134,-1.63373 -2.10083,-3.64852 -2.82796,-5.99955 -0.747076,-2.37234 -1.11064,-4.79057 -1.11064,-7.27518 0,-6.55924 2.42397,-12.1338 7.25196,-16.7452 4.84766,-4.58899 11.2111,-6.87228 19.0888,-6.87228 3.51522,0 6.72669,0.44688 9.61556,1.34255 2.90882,0.895672 5.49422,2.23904 7.77724,4.02957zm-142.235 95.573c2.8296,1.50289 6.99137,1.53786 9.47871,-0.561331 20.123,-18.9197 42.364,-41.4235 62.0409,-62.1947 4.45651,-5.29618 -3.00715,-11.67 -6.45736,-15.5507 -5.81681,-6.54231 -53.4977,-54.8646 -57.9116,-56.5013 -2.8479,-1.05601 -6.76711,-0.0256765 -8.96737,2.09154 -1.53868,1.53403 -11.1318,10.9286 -11.9308,11.6956 3.00196,2.95826 8.67783,8.38227 11.2152,11.1548 1.17183,1.15517 2.34366,2.31034 3.51576,3.4655 4.23853,-0.453162 9.16322,-0.356739 12.2119,2.911 1.27618,1.36877 2.22402,3.29342 2.65424,5.96705 0.343901,2.1377 -0.559692,4.21203 -0.297738,5.60375 0.118002,0.626615 13.2111,13.4012 14.8279,15.0278 9.27849,-4.34998 19.6996,9.91576 10.9961,18.5384 -4.41389,4.37292 -9.81032,4.52124 -13.8,2.13415 -4.09157,-2.44801 -7.05994,-10.1438 -4.55293,-13.933 -4.28551,-4.31774 -8.64122,-8.71279 -13.071,-12.8825 -0.00546308,11.7702 -0.287904,23.1766 -0.0240375,34.9438 0.0125651,0.580725 6.14023,4.02438 6.06975,10.8101 -0.0680153,6.60759 -7.30058,12.5416 -13.8855,10.8204 -5.08066,-1.32862 -9.19245,-6.47265 -8.81877,-12.0428 0.450704,-6.7133 6.59202,-8.80594 6.60131,-10.2946 0.0751173,-11.8147 0.149688,-23.6289 0.224533,-35.4431 -2.21364,-2.00304 -4.87908,-3.64305 -6.02523,-6.58328 -0.928996,-2.38354 -0.61405,-5.20331 -0.343081,-7.64093 0.103798,-0.934186 -0.0824925,-0.914246 -0.617601,-1.50235 -4.57642,-4.53927 -9.17797,-9.11378 -13.7306,-13.673 -14.1447,13.1067 -27.5645,27.2711 -41.0395,40.7502 -4.16751,4.33932 -3.15383,7.9018 0.482663,11.8942 11.6273,12.7664 60.7451,60.7776 61.1542,60.9953zm-78.7738 -147.52l352.07 0c4.42455,0 8.04438,3.61984 8.04438,8.04411l0 144.802c0,4.42427 -3.61984,8.04438 -8.04438,8.04438l-352.07 0c-4.42482,0 -8.04438,-3.62011 -8.04438,-8.04438l0 -144.802c0,-4.42427 3.61956,-8.04411 8.04438,-8.04411zm-723.625 51.5728l-7.28638 0 4.30026 -20.1883 7.04792 0c2.75312,0 6.76575,0.469278 8.18533,3.16312 1.44143,2.73646 0.0734784,8.38282 -1.33572,11.2121 -1.92655,3.8695 -6.74499,5.81299 -10.9114,5.81299zm-9.07882 8.36206c1.78861,-0.0773026 10.3244,-0.211148 13.7233,-0.25376 10.4907,-1.10518 17.2136,-7.70294 19.6974,-18.7684 2.51602,-11.2135 -5.81545,-17.8899 -16.0989,-17.8899l-20.4275 0 -10.5126 49.8137 10.2736 0.119915 3.34477 -13.0215zm-32.3674 -36.4234l2.76322 -13.0185 -10.4643 -0.0469825 -10.393 49.5761 10.4795 -0.0147503 6.39918 -27.2927c2.47341,-0.060367 11.216,-0.553683 13.2015,0.37504 3.8542,1.80254 -3.05605,23.0151 -3.79302,26.924l10.7016 0.00273154c2.16174,-9.60491 12.3949,-33.6665 -2.92958,-36.1301 -5.55267,-0.892394 -12.995,-0.279436 -15.9653,-0.374767zm-49.153 36.4234c1.78834,-0.0773026 10.3241,-0.211148 13.7227,-0.25376 10.4913,-1.10518 17.2139,-7.70294 19.6974,-18.7684 2.51657,-11.2135 -5.81517,-17.8899 -16.0981,-17.8899l-20.4286 0 -10.5118 49.8137 10.273 0.119915 3.34532 -13.0215zm9.07909 -8.36206l-7.28747 0 4.30054 -20.1883 7.04819 0c2.75285,0 6.76548,0.469278 8.18478,3.16312 1.44198,2.73646 0.0734784,8.38282 -1.33518,11.2121 -1.92655,3.8695 -6.74554,5.81299 -10.9109,5.81299zm39.105 -59.5503c49.6881,0 89.9682,23.3995 89.9682,52.2636 0,28.8644 -40.2801,52.2634 -89.9682,52.2634 -49.6881,0 -89.9679,-23.3989 -89.9679,-52.2634 0,-28.8642 40.2798,-52.2636 89.9679,-52.2636zm-105.719 179.8l-0.183013 0.182194 0.183013 -0.182194zm246.346 -146.123c1.20925,-0.229449 1.60205,-1.8599 1.76403,-3.12433 0.0947844,-0.740793 -1.83232,-2.4969 -3.5439,-3.52068 -1.08551,-0.649287 -2.08498,-1.00411 -2.42752,-0.61924 -0.722492,0.810448 2.31962,4.02465 2.84981,5.13529 0.412189,0.863166 0.623884,1.70175 1.35757,2.12896zm73.6092 126.854c0.0382415,-1.44826 -0.0406999,-6.52483 -0.0652838,-6.58902 -1.84106,-0.028408 -24.09,-0.150508 -29.5432,-0.180555 -3.27348,-0.112539 -6.67697,-1.86865 -7.52839,-4.1768 -1.54523,-4.86187 -0.515715,-29.1502 -0.410004,-38.9053l-9.78574 -0.00409731c-0.0502603,2.49362 0.0934186,33.0849 0.0925992,36.6797 -0.00573623,13.1742 12.0111,13.2821 22.7171,13.2821 3.12188,0 23.1869,-0.0516261 24.5229,-0.105984zm-163.694 -40.0285l0 9.12225c0,2.71324 3.70014,5.6409 5.87499,6.66659 1.84051,0.868629 5.14677,1.90525 7.1905,2.13798 5.00117,0.569799 10.1957,0.355646 15.5244,0.338711 1.88449,-0.00655569 5.02084,0.342808 6.44507,1.18002 1.40401,0.825744 2.445,2.10301 2.5824,3.95636 0.0606402,0.821647 0.0822193,2.78672 0.0573623,3.58323 -0.0786683,2.50946 -0.354281,3.27129 -2.79163,4.84957 -2.47887,1.60478 -10.6036,1.23356 -14.1401,1.23356l-20.5636 0.0346905 -0.0161161 6.9993 32.9877 0.0322322c6.58465,0 10.6743,-2.60616 13.458,-7.36696 0.388425,-0.664583 1.33354,-2.2415 1.33354,-2.96454l0 -8.82096c0,-4.65318 -6.37186,-7.50955 -10.1799,-8.46094 -5.51798,-1.37861 -12.6375,-1.27563 -18.3412,-1.27563 -10.2528,0 -8.61746,-1.85799 -8.65597,-8.66499 -0.0122919,-2.30924 -0.0813999,-3.29669 1.5567,-4.17379 2.12514,-1.13769 9.08237,-1.00002 12.2529,-1.00002l23.3975 0.0223986 -0.00109262 -7.32216 -33.7979 0.0658301c-5.2634,0.328331 -14.1737,3.84956 -14.1737,9.82726zm-59.6025 29.889c0,2.81458 2.03827,5.83266 4.49147,7.11265 10.125,4.87962 24.6983,2.79354 34.5105,3.02354 1.06475,0.130021 1.07076,0.595476 1.09589,1.74873 0.0215792,1.03143 0.03551,2.13497 -0.190661,2.95279 -1.02323,3.70178 -11.6134,3.48189 -15.218,3.48189l-24.7469 0.00983354 -0.0122919 6.68134 35.5941 -0.40099c4.98697,-0.0557234 15.3567,-3.76761 15.3308,-9.79748l-0.170448 -39.3208 -10.3826 -0.0677422 -0.180008 25.1845c-0.028408,4.02957 -24.9004,2.80529 -27.7554,1.81292 -2.32044,-0.806077 -3.54335,-2.36223 -3.59716,-4.71682l-0.311669 -22.2806 -8.6527 -0.00245839 0.195032 24.5787zm120.498 -138.085c0,5.33442 5.59911,10.5331 8.51776,14.8271 3.63377,5.34535 4.36418,14.3925 8.88979,21.215 4.24071,6.39371 3.33248,3.22923 1.68017,10.4031 -2.25816,9.81087 -3.48217,21.5729 3.24944,30.098 1.44034,1.82439 3.05304,3.73647 5.75699,3.80886 1.8905,0.0502603 3.41224,-1.22892 4.09185,-2.36742 1.37151,-2.29859 0.952215,-6.25577 2.70477,-9.86468 2.56082,4.60237 4.79959,9.24599 8.58359,12.9093 0.597388,0.578267 8.45439,7.75784 5.56196,3.31445l-3.40077 -4.81598c-3.7911,-5.55404 -6.8802,-11.6317 -9.52597,-17.8293 -0.464088,-0.98991 -1.4174,-4.18281 -2.24259,-3.51221 -1.8304,1.49169 -3.67228,4.62504 -4.24399,6.81683 -1.04154,3.98832 -0.416833,14.6831 -4.91677,8.62238 -4.16368,-5.61003 -4.73103,-19.7673 -2.39884,-25.9379 4.04268,-10.6959 2.14917,-7.71906 -1.84679,-13.6088 -0.326146,-0.480205 -0.612684,-1.06421 -0.917251,-1.62964 -3.50211,-6.49724 -4.17816,-13.6246 -8.10284,-19.8187 -1.26743,-1.99976 -3.0484,-4.01919 -4.22514,-5.80643 -1.50262,-2.83862 -6.76247,-9.67019 0.258677,-9.03921 5.55732,0.500145 9.69888,4.89546 14.2125,7.5344 1.4723,0.860981 9.62212,0.660759 13.2985,2.21883 15.1852,6.43742 26.2187,17.0205 34.3313,31.1587 3.93096,6.84988 10.6331,30.6938 19.4368,33.5023 9.16431,2.92384 16.301,6.95832 23.2154,13.334 0.419838,0.386786 0.534835,0.388698 -0.14204,0.581545 -4.23935,1.2098 -10.7522,1.32534 -16.434,2.87303 -1.92273,0.523636 -1.99594,1.51573 -1.99184,1.68044 0.192847,7.89169 17.0115,13.5416 22.6062,17.9383 0.525548,0.413009 6.51691,5.39342 5.40954,3.07025 -2.44719,-5.13639 -10.4189,-11.3157 -15.5299,-14.3133 -4.58707,-2.69057 -7.45819,-4.69196 -1.26907,-6.22381 3.60263,-0.890755 7.25442,-1.60314 10.9117,-2.42397 3.99624,-0.896218 2.16393,-1.71513 -0.119641,-4.51168 -3.00333,-3.67802 -13.7506,-11.4178 -18.4365,-13.4974 -1.60314,-0.711566 -7.79745,-3.15192 -8.6262,-4.14648 -2.29449,-2.75175 -11.2807,-23.0282 -12.3698,-25.9636 -0.581272,-1.56872 -1.28655,-2.9263 -2.10656,-4.26721 -0.820827,-1.34119 -1.516,-2.4898 -2.44309,-3.93669 -0.919709,-1.43652 -2.0156,-2.76049 -2.97929,-4.13446 -1.6168,-2.30651 -3.61628,-4.43575 -5.44997,-6.59148 -3.12734,-3.67556 -10.0144,-9.15393 -13.8221,-11.727 -0.692172,-0.467639 -1.24504,-0.850874 -1.84297,-1.26088 -2.56273,-1.75501 -5.23636,-3.36143 -8.15337,-4.62313 -4.41335,-1.90935 -8.7483,-2.34093 -13.4577,-2.58431 -3.33767,-0.171814 -14.5203,-11.3493 -22.9086,-7.05393 -1.68099,0.860708 -2.81321,2.55071 -2.81321,5.58272zm-5.88756 109.472l0 27.9161c0,5.50187 5.71875,9.49319 10.927,10.4847 5.96022,0.974613 9.43637,0.530738 16.1093,0.530738l7.49343 -0.241468c1.44034,-0.0611865 2.37343,-0.128382 3.24288,0.57417l8.65215 6.9168 10.8745 -0.0538113 -10.1053 -8.82943c1.85362,-1.46001 3.55237,-2.41277 5.14704,-4.16915 1.42996,-2.00113 1.65804,-5.20932 1.65804,-7.64121l0 -24.1326c0,-1.14178 -0.139582,-2.68374 -0.49277,-3.73019 -2.17649,-6.45545 -9.2886,-8.36944 -15.51,-8.72836l-22.2623 0c-1.44826,0 -4.34069,0.579086 -5.57589,0.940196 -4.8351,1.41439 -10.158,4.41362 -10.158,10.1635zm14.222 30.5148c-1.38762,-1.00002 -2.675,-2.06095 -3.05687,-3.8878 -0.463542,-2.21774 -0.428852,-23.2113 -0.056816,-25.5833 0.413009,-2.62965 3.30025,-4.21558 5.81736,-4.63815 2.45729,-0.411643 16.7411,-0.390883 19.0634,-0.275339 2.08553,0.104072 3.55646,0.276978 5.35518,1.25378 1.45864,0.7916 2.56054,2.64987 2.56054,4.076 0,8.02034 0,16.041 0,24.0613 0,0.311669 0.0800341,0.826291 -0.151874,1.03361l-4.1279 3.6955 -5.01128 -5.16589c-0.643824,-0.543576 -1.31797,-1.36659 -2.45702,-1.36659 -1.99184,0 -9.15858,0.0647375 -10.6467,0.118549 1.22045,1.37178 6.02004,6.6838 6.71003,7.59668 -2.96864,0.224533 -11.4342,0.929543 -13.998,-0.918343zm-214.067 -34.7108c0,13.927 -0.160614,27.8554 0,41.7816 0.00518992,0.440324 0.0614596,1.28382 0.501511,1.28492 1.96288,0.00573623 6.63573,0.0147503 8.93568,-0.0114725 1.81729,-0.0158429 1.4977,-2.12541 1.4977,-3.82771 -0.00109262,-12.3141 -0.0636449,-24.3973 0.325599,-36.7018 0.0226718,-0.719214 -0.031959,-0.833666 0.404814,-0.0770294 2.15792,3.73784 11.6749,25.2452 12.4285,26.8983 2.73646,5.99983 5.49913,13.7473 13.6618,13.7202 10.3861,-0.0344174 19.2483,-26.1477 23.547,-35.6736 0.975159,-2.14726 1.46629,-3.10112 2.48324,-4.98506 0.385147,-0.714024 0.50752,-0.613504 0.510251,0.260589l0.13248 36.1937c0.00573623,1.46602 -0.131114,4.19127 1.3349,4.19127l8.57676 0c1.17948,0 1.19915,-0.980623 1.1945,-2.72498l-0.00409731 -29.1993c0,-4.05142 0.561604,-12.8557 -1.19942,-15.3179 -2.99131,-4.18035 -14.2928,-5.46417 -18.2153,-0.708561 -6.40163,7.76276 -11.3069,26.1337 -18.5461,37.6015 -0.308391,0.488672 -0.230542,0.529919 -0.594929,0.0286812 -3.53188,-4.8564 -12.4203,-30.0013 -16.4152,-36.0694 -2.69658,-4.09758 -7.16346,-5.07219 -11.5315,-4.49393 -4.65509,0.616235 -9.02828,2.30378 -9.02828,7.82996zm-8.21893 -132.503l341.122 0c5.02986,0 9.14519,4.11561 9.14519,9.14547l0 188.395c0,5.02986 -4.11534,9.14492 -9.14519,9.14492l-341.122 0c-5.02986,0 -9.14519,-4.11506 -9.14519,-9.14492l0 -188.395c0,-5.02986 4.11534,-9.14547 9.14519,-9.14547zm754.467 110.569l4.132 -0.388152c0.192847,1.77304 0.648194,3.22458 1.36522,4.36227 0.717029,1.13851 1.8274,2.05357 3.32975,2.75476 1.50399,0.70064 3.20027,1.047 5.08121,1.047 1.67279,0 3.14564,-0.263867 4.42564,-0.791327 1.27945,-0.535928 2.23576,-1.26197 2.85992,-2.18578 0.62443,-0.931728 0.940469,-1.93748 0.940469,-3.03419 0,-1.11338 -0.300469,-2.07843 -0.909602,-2.91127 -0.601212,-0.832846 -1.59549,-1.52529 -2.97574,-2.08635 -0.894579,-0.371216 -2.85255,-0.94839 -5.89739,-1.73207 -3.03802,-0.783132 -5.17408,-1.5171 -6.39207,-2.20954 -1.58047,-0.88256 -2.75967,-1.98747 -3.53871,-3.29861 -0.770567,-1.31114 -1.15626,-2.77879 -1.15626,-4.41171 0,-1.78124 0.470098,-3.45567 1.41849,-5.00582 0.947844,-1.55834 2.33574,-2.73755 4.15576,-3.54636 1.82685,-0.799795 3.84737,-1.20379 6.07494,-1.20379 2.45975,0 4.61794,0.421203 6.4997,1.27017 1.87302,0.840768 3.31472,2.08662 4.32457,3.72691 1.00275,1.64165 1.54988,3.50511 1.62718,5.58299l-4.20193 0.338711c-0.231361,-2.23467 -0.994553,-3.93424 -2.29777,-5.07192 -1.30267,-1.14615 -3.22267,-1.71541 -5.76683,-1.71541 -2.65205,0 -4.57915,0.519539 -5.79769,1.55862 -1.21034,1.03962 -1.81948,2.29231 -1.81948,3.75204 0,1.27809 0.431583,2.32618 1.28737,3.14209 0.848689,0.824652 3.04567,1.66624 6.60787,2.5234 3.56165,0.865898 6.00529,1.61625 7.33172,2.2598 1.9271,0.956312 3.35378,2.16065 4.27103,3.61191 0.917524,1.45919 1.3726,3.14182 1.3726,5.0386 0,1.88859 -0.501511,3.66135 -1.51109,5.32705 -1.0104,1.66597 -2.45948,2.96072 -4.34888,3.89272 -1.88831,0.922987 -4.01618,1.38516 -6.37541,1.38516 -2.99923,0 -5.51225,-0.462176 -7.53277,-1.40183 -2.02762,-0.932001 -3.61547,-2.33383 -4.77227,-4.21422 -1.14861,-1.87165 -1.75747,-3.99952 -1.81156,-6.36585zm-23.8775 1.32725l3.95527 -0.577174c0.100521,2.70477 0.57854,4.56058 1.41876,5.55814 0.84787,0.997831 2.0126,1.49224 3.49965,1.49224 1.10272,0 2.05139,-0.263594 2.84517,-0.807716 0.80198,-0.535928 1.34911,-1.27017 1.65012,-2.19397 0.300742,-0.931728 0.454801,-2.40758 0.454801,-4.43629l0 -24.4011 4.3792 0 0 24.137c0,2.96099 -0.331609,5.26176 -1.0022,6.88621 -0.671139,1.62472 -1.7348,2.86156 -3.18443,3.71899 -1.457,0.849235 -3.16094,1.27836 -5.11918,1.27836 -2.90636,0 -5.12655,-0.890755 -6.67643,-2.68019 -1.54195,-1.7897 -2.2822,-4.44476 -2.22074,-7.97446zm-39.5734 -9.73083l9.42108 0c1.99703,0 3.56985,-0.222347 4.69524,-0.667861 1.13304,-0.445241 1.98911,-1.15462 2.57502,-2.1276 0.585642,-0.972701 0.878736,-2.02899 0.878736,-3.17514 0,-1.67416 -0.562151,-3.05086 -1.70339,-4.13145 -1.13386,-1.08005 -2.92985,-1.61625 -5.38905,-1.61625l-10.4776 0 0 11.7183zm-4.3792 19.7837l0 -35.4188 14.679 0c2.95307,0 5.19621,0.321502 6.73051,0.956858 1.53458,0.634537 2.76022,1.75611 3.68567,3.36389 0.917251,1.61652 1.37233,3.39803 1.37233,5.34371 0,2.51575 -0.75609,4.62641 -2.2822,6.34974 -1.51901,1.72387 -3.87032,2.82113 -7.0471,3.29096 1.16473,0.593563 2.04346,1.17893 2.64495,1.76403 1.27973,1.2535 2.49007,2.82878 3.63896,4.7089l5.75918 9.64069 -5.51252 0 -4.3792 -7.37297c-1.27973,-2.11858 -2.33656,-3.75204 -3.16859,-4.87361 -0.824925,-1.12949 -1.5649,-1.92136 -2.22074,-2.36661 -0.655023,-0.453435 -1.31824,-0.767289 -1.99648,-0.94839 -0.500964,-0.107076 -1.31114,-0.164985 -2.44418,-0.164985l-5.08039 0 0 15.7266 -4.3792 0zm-25.0102 -14.5474l11.2332 0 -3.46195 -9.80486c-1.04864,-2.9771 -1.83505,-5.42648 -2.34393,-7.34784 -0.424208,2.27646 -1.01804,4.52753 -1.78861,6.77094l-3.63868 10.3818zm-9.55247 14.5474l12.7213 -35.4188 4.71791 0 13.5539 35.4188 -4.99626 0 -3.86267 -10.7289 -13.8467 0 -3.63076 10.7289 -4.65673 0zm-22.2741 0l0 -35.4188 4.38767 0 0 31.2376 16.3059 0 0 4.18117 -20.6936 0zm-11.494 -35.4188l4.38658 0 0 20.4674c0,3.55455 -0.378045,6.38333 -1.13304,8.4776 -0.75609,2.09482 -2.11285,3.79329 -4.07901,5.1047 -1.96562,1.31933 -4.54091,1.97081 -7.73271,1.97081 -3.09948,0 -5.64391,-0.56898 -7.60925,-1.71568 -1.97408,-1.13741 -3.38465,-2.79491 -4.22487,-4.9643 -0.848416,-2.16857 -1.2647,-5.12054 -1.2647,-8.87313l0 -20.4674 4.3792 0 0 20.4431c0,3.07571 0.269876,5.34344 0.80198,6.7947 0.531831,1.45946 1.45728,2.5813 2.75203,3.3729 1.30267,0.792146 2.89898,1.1874 4.78019,1.1874 3.22267,0 5.52044,-0.783405 6.89249,-2.35076 1.36468,-1.55807 2.05111,-4.55976 2.05111,-9.00425l0 -20.4431zm-42.2107 21.5232l0 -4.14812 14.0237 -0.0245839 0 13.1368c-2.15054,1.83887 -4.37156,3.21611 -6.66113,4.14812 -2.28985,0.922987 -4.64088,1.38516 -7.04655,1.38516 -3.25381,0 -6.21398,-0.741886 -8.86603,-2.23495 -2.65997,-1.48405 -4.6641,-3.64469 -6.0214,-6.45709 -1.35703,-2.82004 -2.03527,-5.97032 -2.03527,-9.45058 0,-3.44638 0.678241,-6.66304 2.02762,-9.64807 1.34091,-2.99349 3.2844,-5.21178 5.81272,-6.66304 2.52886,-1.44307 5.44314,-2.16912 8.74311,-2.16912 2.39037,0 4.55648,0.412462 6.4915,1.24558 1.93502,0.824652 3.4543,1.97873 4.54883,3.46332 1.10245,1.48459 1.93502,3.4136 2.51329,5.79715l-3.95527 1.16282c-0.500691,-1.80609 -1.11775,-3.22431 -1.85034,-4.25492 -0.740247,-1.03061 -1.79626,-1.85553 -3.16859,-2.47423 -1.3644,-0.618694 -2.89079,-0.931728 -4.55621,-0.931728 -2.00495,0 -3.73893,0.329697 -5.19621,0.981442 -1.4652,0.651745 -2.63703,1.50863 -3.53871,2.57311 -0.894852,1.06311 -1.58894,2.22648 -2.08963,3.50402 -0.840495,2.18578 -1.26416,4.56058 -1.26416,7.12522 0,3.15821 0.508613,5.79742 1.52611,7.92501 1.01777,2.1276 2.49854,3.7026 4.44094,4.73321 1.94294,1.03061 4.00089,1.55042 6.18366,1.55042 1.90361,0 3.75423,-0.395254 5.55868,-1.17893 1.81156,-0.775757 3.17569,-1.6086 4.10878,-2.49854l0 -6.59749 -9.72947 0zm-48.9489 13.8956l0 -35.4188 4.49475 0 17.3928 27.8068 0 -27.8068 4.2022 0 0 35.4188 -4.49502 0 -17.3928 -27.8325 0 27.8325 -4.20193 0zm-47.7383 -34.7124l8.59506 18.2549 -16.6048 0 8.00969 -18.2549zm-0.17236 -18.2937l28.0223 57.341 -9.64807 0 -5.75098 -13.2712 -23.8166 0.0125651 -5.51061 13.2586 -9.77454 0 26.4784 -57.341zm0.131933 -4.65482l37.2945 12.9202 -5.77038 49.2529 -31.6025 17.5335 -31.1565 -17.4818 -5.86926 -48.9773 37.1041 -13.2474zm0.0581818 -4.35462l41.736 14.3641 -6.45763 54.7553 -35.3661 19.4931 -34.8675 -19.4352 -6.56826 -54.4497 41.5235 -14.7276zm-46.1778 -4.73075l351.903 0c2.64768,0 4.81379,2.16611 4.81379,4.81379l0 86.6523c0,2.64768 -2.16611,4.81379 -4.81379,4.81379l-351.903 0c-2.64768,0 -4.81379,-2.16611 -4.81379,-4.81379l0 -86.6523c0,-2.64768 2.16611,-4.81379 4.81379,-4.81379z"/>
  <path class="fil0" d="M982.962 213.614l0 3.74876 -3.21147 0 0 7.16619c0,1.45154 0.028408,2.29722 0.0912334,2.53733 0.0630986,0.239829 0.200222,0.434315 0.417379,0.594383 0.217157,0.154059 0.485668,0.234093 0.794332,0.234093 0.440051,0 1.06858,-0.154332 1.89705,-0.45125l0.40017 3.64579c-1.09726,0.468732 -2.33164,0.702825 -3.72036,0.702825 -0.845684,0 -1.61133,-0.142859 -2.29149,-0.422842 -0.680153,-0.285719 -1.17729,-0.657208 -1.49716,-1.10846 -0.320136,-0.451523 -0.537294,-1.06311 -0.662945,-1.8345 -0.0972428,-0.542757 -0.148596,-1.65149 -0.148596,-3.31445l0 -7.7491 -2.1601 0 0 -3.74876 2.1601 0 0 -3.53734 4.72037 -2.74301 0 6.28035 3.21147 0zm-24.5729 8.58905c0,1.9943 0.394434,3.47452 1.18877,4.42318 0.788595,0.9544 1.75447,1.43433 2.89734,1.43433 1.09152,0 2.00003,-0.440051 2.7258,-1.31442 0.72577,-0.874366 1.09152,-2.31443 1.09152,-4.30873 0,-1.86865 -0.377226,-3.25162 -1.12567,-4.15467 -0.748715,-0.902774 -1.67443,-1.3543 -2.77743,-1.3543 -1.14861,0 -2.10301,0.440051 -2.86293,1.33163 -0.760187,0.885565 -1.13741,2.19998 -1.13741,3.94298zm-4.65727 -8.58905l4.38876 0 0 2.61162c0.565702,-0.897311 1.33736,-1.62308 2.3087,-2.17731 0.971608,-0.559966 2.05166,-0.840221 3.23469,-0.840221 2.06286,0 3.81733,0.81154 5.25166,2.42888 1.44007,1.61707 2.1601,3.87441 2.1601,6.76602 0,2.96591 -0.72577,5.2746 -2.17157,6.92063 -1.45154,1.64575 -3.21147,2.46849 -5.2746,2.46849 -0.982808,0 -1.87438,-0.194212 -2.67445,-0.582637 -0.794332,-0.394434 -1.63428,-1.06311 -2.52012,-2.01178l0 8.96054 -4.70316 0 0 -24.5442zm-9.38912 17.7782l0 -17.7782 4.70316 0 0 17.7782 -4.70316 0zm0 -20.1899l0 -4.35462 4.70316 0 0 4.35462 -4.70316 0zm-8.84063 20.1899l-4.70316 0 0 -17.7782 4.36582 0 0 2.52585c0.748715,-1.1945 1.42313,-1.9831 2.01724,-2.36032 0.600119,-0.376952 1.27454,-0.571438 2.03445,-0.571438 1.07431,0 2.10301,0.297191 3.09757,0.891574l-1.45728 4.09731c-0.788595,-0.508613 -1.52584,-0.76565 -2.20599,-0.76565 -0.662945,0 -1.21717,0.177277 -1.67443,0.542757 -0.462723,0.36029 -0.817003,1.01723 -1.08005,1.96589 -0.262774,0.948664 -0.394161,2.9375 -0.394161,5.96049l0 5.49176zm-8.06897 -12.5208l-4.64034 0.834485c-0.154332,-0.925992 -0.508613,-1.62308 -1.06311,-2.09181 -0.554229,-0.468459 -1.26853,-0.702825 -2.14863,-0.702825 -1.17729,0 -2.10875,0.405907 -2.80584,1.21144 -0.697089,0.81154 -1.04591,2.16584 -1.04591,4.06316 0,2.10875 0.354554,3.60017 1.06311,4.4688 0.708561,0.868629 1.65722,1.30294 2.85145,1.30294 0.897311,0 1.62308,-0.251302 2.19452,-0.759914 0.571438,-0.508613 0.971608,-1.38298 1.2057,-2.61736l4.62313 0.782859c-0.479931,2.12022 -1.40565,3.72609 -2.76568,4.80614 -1.36031,1.08579 -3.18306,1.62281 -5.47482,1.62281 -2.60015,0 -4.67448,-0.817003 -6.21753,-2.45729 -1.54851,-1.64002 -2.32017,-3.9143 -2.32017,-6.81738 0,-2.93176 0.777396,-5.21751 2.32591,-6.85207 1.55452,-1.64002 3.65179,-2.45729 6.29756,-2.45729 2.16584,0 3.88589,0.468732 5.16616,1.40019 1.27426,0.931455 2.19425,2.35431 2.75448,4.26311zm-39.5969 4.53736l4.82308 -0.474195c0.285719,1.62281 0.874366,2.81157 1.76594,3.57176 0.885838,0.754178 2.08007,1.13714 3.5887,1.13714 1.5944,0 2.8001,-0.337345 3.6059,-1.01723 0.81154,-0.674417 1.21717,-1.46301 1.21717,-2.36579 0,-0.58291 -0.171267,-1.07459 -0.514076,-1.48022 -0.337345,-0.41137 -0.931728,-0.76565 -1.78315,-1.06284 -0.577174,-0.205685 -1.90279,-0.560239 -3.96592,-1.07431 -2.65724,-0.657208 -4.52015,-1.46875 -5.589,-2.42888 -1.50863,-1.34856 -2.26281,-2.99431 -2.26281,-4.93753 0,-1.25132 0.354281,-2.41714 1.06284,-3.50866 0.708561,-1.08579 1.73152,-1.91454 3.06315,-2.48597 1.33709,-0.565702 2.94296,-0.851421 4.82881,-0.851421 3.08582,0 5.40025,0.674417 6.96051,2.02298 1.55425,1.3543 2.37152,3.15438 2.45156,5.41173l-4.95474 0.217157c-0.211421,-1.26279 -0.668681,-2.17157 -1.36577,-2.72007 -0.697089,-0.554229 -1.743,-0.828749 -3.13745,-0.828749 -1.44007,0 -2.57147,0.291455 -3.38301,0.885838 -0.525821,0.377226 -0.788595,0.885838 -0.788595,1.5201 0,0.58291 0.245839,1.08005 0.737242,1.49142 0.622791,0.525821 2.14289,1.07459 4.55457,1.64029 2.41168,0.571438 4.19455,1.16008 5.3489,1.76567 1.15435,0.611592 2.0574,1.44007 2.7146,2.49745 0.651199,1.05711 0.977072,2.36005 0.977072,3.90883 0,1.40565 -0.388698,2.7258 -1.17156,3.94871 -0.782859,1.22865 -1.88585,2.14317 -3.31445,2.73728 -1.42859,0.600119 -3.21174,0.897311 -5.34316,0.897311 -3.10303,0 -5.48602,-0.714297 -7.14898,-2.14863 -1.66296,-1.43433 -2.65751,-3.52614 -2.97738,-6.26916zm-8.04056 -0.554229c-0.599846,0.199949 -1.55425,0.440051 -2.86293,0.720034 -1.30294,0.279983 -2.15436,0.554229 -2.56027,0.817276 -0.611318,0.440051 -0.919982,0.988544 -0.919982,1.65722 0,0.662945 0.245839,1.22865 0.737242,1.70858 0.491404,0.480205 1.11419,0.720034 1.87438,0.720034 0.851421,0 1.65722,-0.279983 2.42861,-0.834212 0.571711,-0.422842 0.942927,-0.942927 1.1202,-1.56026 0.125651,-0.399897 0.18274,-1.16555 0.18274,-2.29149l0 -0.937191zm-6.29183 -3.81733l-4.26885 -0.77166c0.480205,-1.72005 1.30294,-2.98858 2.4745,-3.81733 1.17729,-0.82274 2.91455,-1.24012 5.22325,-1.24012 2.10301,0 3.66299,0.251575 4.69169,0.748715 1.02296,0.49714 1.74873,1.12567 2.16584,1.89159 0.417106,0.76565 0.628527,2.16584 0.628527,4.21176l-0.0513529 5.49176c0,1.55998 0.0742979,2.71433 0.22863,3.45731 0.148596,0.737242 0.434315,1.53731 0.845684,2.38299l-4.65727 0c-0.120188,-0.3144 -0.274247,-0.777123 -0.451523,-1.38871 -0.0742979,-0.279983 -0.131387,-0.462723 -0.165804,-0.554229 -0.805804,0.782859 -1.66296,1.36577 -2.57721,1.7602 -0.914246,0.388425 -1.89159,0.582637 -2.93176,0.582637 -1.82849,0 -3.2743,-0.49714 -4.32594,-1.48568 -1.05711,-0.99428 -1.58293,-2.25161 -1.58293,-3.77171 0,-1.00002 0.240102,-1.89733 0.720034,-2.68592 0.480205,-0.788595 1.15435,-1.38871 2.01724,-1.80582 0.862893,-0.417106 2.11448,-0.782859 3.7433,-1.09726 2.19425,-0.41137 3.72008,-0.800068 4.56577,-1.15435l0 -0.468459c0,-0.908783 -0.222894,-1.54878 -0.668408,-1.93721 -0.445787,-0.382962 -1.28601,-0.577174 -2.52585,-0.577174 -0.840221,0 -1.49169,0.165531 -1.96015,0.49714 -0.468732,0.325599 -0.845958,0.902774 -1.13741,1.73152zm-17.6982 12.355l-7.16619 -17.7782 4.93753 0 3.34887 9.07472 0.971335 3.02873c0.257311,-0.771387 0.423115,-1.28 0.485941,-1.52556 0.160068,-0.503149 0.325599,-1.00603 0.502876,-1.50317l3.38301 -9.07472 4.84029 0 -7.06895 17.7782 -4.2347 0zm-14.1494 -8.5377c-0.599846,0.199949 -1.55425,0.440051 -2.86293,0.720034 -1.30294,0.279983 -2.15436,0.554229 -2.56027,0.817276 -0.611318,0.440051 -0.919982,0.988544 -0.919982,1.65722 0,0.662945 0.245839,1.22865 0.737242,1.70858 0.491404,0.480205 1.11419,0.720034 1.87438,0.720034 0.851421,0 1.65722,-0.279983 2.42861,-0.834212 0.571711,-0.422842 0.942927,-0.942927 1.1202,-1.56026 0.125651,-0.399897 0.18274,-1.16555 0.18274,-2.29149l0 -0.937191zm-6.29183 -3.81733l-4.26885 -0.77166c0.480205,-1.72005 1.30294,-2.98858 2.4745,-3.81733 1.17729,-0.82274 2.91455,-1.24012 5.22325,-1.24012 2.10301,0 3.66299,0.251575 4.69169,0.748715 1.02296,0.49714 1.74873,1.12567 2.16584,1.89159 0.417106,0.76565 0.628527,2.16584 0.628527,4.21176l-0.0513529 5.49176c0,1.55998 0.0742979,2.71433 0.22863,3.45731 0.148596,0.737242 0.434315,1.53731 0.845684,2.38299l-4.65727 0c-0.120188,-0.3144 -0.274247,-0.777123 -0.451523,-1.38871 -0.0742979,-0.279983 -0.131387,-0.462723 -0.165804,-0.554229 -0.805804,0.782859 -1.66296,1.36577 -2.57721,1.7602 -0.914246,0.388425 -1.89159,0.582637 -2.93176,0.582637 -1.82849,0 -3.2743,-0.49714 -4.32594,-1.48568 -1.05711,-0.99428 -1.58293,-2.25161 -1.58293,-3.77171 0,-1.00002 0.240102,-1.89733 0.720034,-2.68592 0.480205,-0.788595 1.15435,-1.38871 2.01724,-1.80582 0.862893,-0.417106 2.11448,-0.782859 3.7433,-1.09726 2.19425,-0.41137 3.72008,-0.800068 4.56577,-1.15435l0 -0.468459c0,-0.908783 -0.222894,-1.54878 -0.668408,-1.93721 -0.445787,-0.382962 -1.28601,-0.577174 -2.52585,-0.577174 -0.840221,0 -1.49169,0.165531 -1.96015,0.49714 -0.468732,0.325599 -0.845958,0.902774 -1.13741,1.73152zm-13.6978 -12.1895l4.94327 0 0 15.5384c0,2.02844 -0.183013,3.59443 -0.537294,4.68596 -0.479931,1.42859 -1.34856,2.57721 -2.61162,3.4401 -1.26279,0.868629 -2.92575,1.29721 -4.98888,1.29721 -2.42288,0 -4.28578,-0.674144 -5.59447,-2.03445 -1.30294,-1.3543 -1.96589,-3.34286 -1.97162,-5.96595l4.66875 -0.537294c0.0573623,1.40592 0.263047,2.4002 0.617328,2.98311 0.537021,0.880102 1.3543,1.32015 2.44582,1.32015 1.103,0 1.88585,-0.3144 2.34311,-0.948664 0.456986,-0.628527 0.685616,-1.93721 0.685616,-3.92604l0 -15.8525zm74.8821 -58.5937l21.0531 -2.39611c1.24749,8.19926 3.81678,14.2043 7.70813,18.0443 3.86622,3.81077 9.07964,5.74525 15.6654,5.74525 6.95942,0 12.2228,-1.70339 15.7402,-5.13912 3.54199,-3.40678 5.31284,-7.39073 5.31284,-11.9524 0,-2.94487 -0.748169,-5.42784 -2.24478,-7.47759 -1.47175,-2.0787 -4.06617,-3.86868 -7.78297,-5.36993 -2.5193,-1.03935 -8.30661,-2.82933 -17.3114,-5.42757 -11.5995,-3.32019 -19.7313,-7.41995 -24.3962,-12.2701 -6.58519,-6.81355 -9.87806,-15.1284 -9.87806,-24.9444 0,-6.32269 1.5466,-12.2124 4.63979,-17.7266 3.09319,-5.48548 7.55844,-9.67183 13.3703,-12.5588 5.8373,-2.85828 12.8467,-4.30163 21.0785,-4.30163 13.47,0 23.5726,3.40678 30.3826,10.2201 6.78487,6.84251 10.352,15.9366 10.7014,27.3408l-21.6272 1.09699c-0.922987,-6.38033 -2.91838,-10.971 -5.96186,-13.7424 -3.04321,-2.80065 -7.60816,-4.18636 -13.6946,-4.18636 -6.28609,0 -11.225,1.4723 -14.7672,4.47481 -2.29504,1.90552 -3.44256,4.47508 -3.44256,7.67972 0,2.94487 1.07268,5.45652 3.21803,7.53522 2.71897,2.65615 9.35416,5.42784 19.881,8.28585 10.5265,2.88724 18.3095,5.86079 23.3484,8.92121 5.0386,3.0891 8.98021,7.27545 11.8486,12.6164 2.84353,5.34125 4.26557,11.9237 4.26557,19.7477 0,7.10227 -1.69629,13.7713 -5.11371,19.9495 -3.41743,6.20742 -8.23177,10.8267 -14.4679,13.8292 -6.2361,3.03146 -14.0191,4.53272 -23.3235,4.53272 -13.5446,0 -23.9469,-3.60891 -31.2056,-10.8554 -7.25906,-7.2465 -11.5995,-17.8132 -12.9961,-31.6714zm-39.1137 -83.6673l21.5775 0 0 78.4995c0,10.2493 -0.798429,18.1598 -2.34503,23.674 -2.09536,7.21782 -5.88674,13.0207 -11.3998,17.3802 -5.51252,4.38849 -12.7716,6.55378 -21.7766,6.55378 -10.5765,0 -18.7086,-3.40678 -24.4208,-10.278 -5.68734,-6.84251 -8.58113,-16.8894 -8.60599,-30.1412l20.3797 -2.71378c0.24939,7.10227 1.14752,12.1256 2.69412,15.0704 2.34503,4.44613 5.91187,6.66905 10.6762,6.66905 4.81434,0 8.23177,-1.58784 10.2274,-4.79249 1.99566,-3.17569 2.99322,-9.7871 2.99322,-19.8343l0 -80.0874zm-45.6569 -18.935l167.997 0c17.6498,0 32.0904,14.4406 32.0904,32.0904l0 137.199c0,17.6498 -14.4406,32.0904 -32.0904,32.0904l-167.997 0c-17.6498,0 -32.0901,-14.4406 -32.0901,-32.0904l0 -137.199c0,-17.6498 14.4403,-32.0904 32.0901,-32.0904z"/>
  <path class="fil0" d="M1340.51 180.893l8.72208 0c1.68399,-2.85282 -2.23385,-4.2246 -4.50567,-4.01891 -3.70151,0.335433 -6.05528,4.01891 -4.2164,4.01891zm-61.5386 -0.629073c-0.447153,2.17267 -0.998924,5.3153 0.142313,7.55216 1.26306,2.47641 3.22349,2.47532 6.52346,2.4745 2.89707,-0.000819462 4.39723,0.158156 5.16807,-0.252121 0.906325,-0.48239 3.02627,-9.34733 3.35706,-11.1908 0.343901,-1.91891 0.348271,-3.78482 -0.500145,-5.57152 -2.64932,-5.57944 -12.747,-2.4532 -14.6908,6.98782zm57.5972 -6.86436c4.00608,-3.24343 10.6953,-3.89436 15.2089,-2.46521 6.91353,2.18987 4.99298,10.1029 3.56848,15.72 -0.0499872,0.197217 -13.1051,-0.0478019 -16.6616,0.0125651 -0.586735,5.96896 8.07907,4.65509 15.5842,4.71983l-1.17975 6.19513c-5.73842,0.0226718 -15.3499,1.09125 -20.1599,-2.4084 -1.27836,-0.929816 -2.14836,-2.26281 -2.14836,-4.35025 0,-5.64609 1.1396,-13.6604 5.78786,-17.4237zm-84.4128 27.9953c2.81021,0 3.84437,-3.72637 4.30491,-5.98644l2.737 -12.4531c1.01176,-5.21669 0.698181,-4.06398 5.9848,-4.11643 2.22156,-0.0215792 2.75885,-0.267691 2.26663,1.94267 -1.17729,5.28853 -2.33246,11.67 -3.59771,16.6181 -2.6414,10.3269 -3.80367,11.0616 -15.1458,10.9742l1.70803 -6.97089 1.74218 -0.00819462zm17.9733 -16.3835c0,-8.29459 5.09924,-18.4731 13.5233,-20.819 8.27165,-2.30296 18.6796,1.34173 19.0424,10.6372 0.138216,3.54062 -3.9875,15.1256 -3.81487,15.5288l3.16859 0.0415194 -1.88585 6.93347 -18.3805 0.0595476c-3.44993,0.0111993 -6.45845,-0.717302 -8.92612,-3.32401 -2.28439,-2.41359 -2.7269,-5.8414 -2.7269,-9.05751zm86.9665 12.4086c0.400444,-2.12186 5.30192,-26.214 5.7996,-26.5257 0.373401,-0.23382 14.1406,-0.0803072 15.7465,-0.0803072 1.35512,0.0611865 2.87139,0.124285 3.98122,0.87819 1.33736,0.907417 2.1418,4.36582 2.1754,5.84877 -5.22434,0.0811267 -10.6153,0.0762099 -15.844,0.109262 -1.54988,6.2372 -3.13608,13.5255 -4.4199,19.7897l-7.4388 -0.0199402zm-95.1745 -20.114c-2.05166,0 -1.11665,-2.09181 -0.495228,-5.11781 0.213333,-1.03853 0.273973,-1.36604 1.19286,-1.37424l6.7144 0.0488945 -1.42914 6.40054 -5.98289 0.042612zm57.9835 13.1928l4.16997 -19.6887 7.10583 0.0663764c-0.409185,2.10028 -4.80614,24.8103 -5.55021,26.4184 -3.89681,0.0275885 -13.944,0.390064 -16.9601,-0.352369 -4.3101,-1.06093 -4.52261,-6.35165 -3.78127,-9.9092l3.37072 -16.1789 7.22847 -0.031959c-0.287631,1.62171 -1.87438,8.3891 -2.83015,13.476 -0.591651,3.14946 -1.76348,6.18229 2.37726,6.19049l4.86951 0.00983354zm66.1775 -7.93321c0.419838,-0.0379684 10.8478,-14.001 12.3228,-15.8528l7.8865 0.184379c-2.50291,3.46987 -7.88049,10.7707 -11.8516,16.1521 -3.0413,4.12135 -5.99737,7.05884 -7.05611,12.2944 -0.260316,1.28874 -0.261955,1.90661 -1.37014,2.09673 -1.17429,0.201314 -6.03506,0.140947 -6.87146,-0.136577 0.0854972,-1.14615 0.353461,-2.78508 0.885019,-5.32213 0.36466,-1.50781 -2.15764,-9.93433 -2.70122,-12.8259l7.75702 -0.11172 0.999197 3.5215zm-92.7174 -91.0255c0.962048,2.30405 -13.1283,24.8958 11.4367,48.0401 14.1682,13.3482 32.0554,17.5411 50.1732,10.8519 7.44099,-2.74738 13.2253,-10.7314 13.204,-9.5948 -0.340077,18.295 -43.9808,36.3131 -74.2804,7.78816 -26.7554,-25.1881 -1.80145,-60.1223 -0.53347,-57.0853zm20.3557 -0.956858c-6.00392,16.5466 19.8941,51.7023 50.5518,33.327 2.76131,-1.65477 5.71438,-6.16836 5.88647,-5.05144 1.36659,8.86302 -25.9308,28.9967 -47,13.0808 -25.9392,-19.5939 -11.4801,-48.1409 -8.56119,-47.8377 0.743798,0.0773026 0.738335,2.02926 -0.877097,6.4814zm15.3518 -0.88857c0,-1.26388 0.0770294,-0.735877 0.452343,-1.66378 0.351003,-0.867537 0.123192,-0.886384 0.289816,-1.7979 0.148869,-0.815091 2.10438,-4.0465 2.80256,-5.11289 3.50784,-5.39097 0.996192,1.89214 0.385693,3.69222l0 3.95254 0.670047 1.88285c0.121007,0.916431 0.107349,1.24312 0.42694,1.96917 1.91754,4.35872 -0.240649,0.683704 2.48789,4.95556 0.327238,0.51271 0.655023,0.805258 0.990183,1.32999 2.27373,3.56111 3.495,3.14837 4.8575,4.67312 0.763738,0.854972 1.64165,0.906051 3.07981,1.802 1.28355,0.799248 1.96398,0.783132 3.47752,1.38325l3.60809 1.00903c2.64987,0 4.51879,0.255672 6.74663,-0.432129 1.03225,-0.365207 0.859615,-0.0805804 1.53868,-0.183559 1.45946,-0.222074 2.793,-1.73398 3.72172,-2.19315 1.89487,-0.936372 2.00222,-2.25652 2.87358,-2.88478 -1.24367,4.7873 -0.506974,2.2303 -1.73398,4.24891 -1.73507,2.855 -5.5005,5.54147 -8.95508,6.07931 -1.2912,0.200768 -0.470644,0.282441 -1.54933,0.58291 -0.449338,0.125378 -7.54861,0.162253 -8.15856,0.0538113 -0.974067,-0.17318 -0.507793,-0.386513 -1.49033,-0.598207 -2.14726,-0.462996 0.0693811,0.502876 -3.29123,-1.07076 -6.25277,-2.92848 -4.32785,-3.01316 -6.29592,-4.1615 -2.17622,-1.26935 -0.984993,-0.780401 -2.09318,-2.31525 -0.429125,-0.59411 -0.603124,-0.491404 -1.06639,-1.02733 -0.556415,-0.643824 -0.378864,-0.758002 -0.732326,-1.36058 -0.391156,-0.666769 -0.620059,-0.636722 -0.946751,-1.14943 -0.318224,-0.499052 -2.09591,-5.58955 -2.09591,-6.31641l0 -5.34699zm-106.096 114.38l101.476 59.0466 100.912 -57.8043 0.234639 -116.545 -101.305 -59.2088 -101.282 58.8305 -0.03551 115.681z"/>
  <path class="fil0" d="M1685.08 151.981l16.5952 0c5.61331,0 9.55984,-1.07213 11.8396,-3.24288 2.30378,-2.17075 3.45622,-5.09214 3.45622,-8.76387 0,-3.4035 -1.12758,-6.13722 -3.40732,-8.20063 -2.27974,-2.06368 -6.25058,-3.10904 -11.9622,-3.10904l-16.5214 0 0 23.3164zm0 -45.2122l14.1439 0c5.07411,0 8.6038,-0.96478 10.6139,-2.86757 1.98528,-1.92956 2.96563,-4.69005 2.96563,-8.28121 0,-3.35023 -0.980349,-5.97661 -2.96563,-7.85263 -2.01014,-1.90279 -5.46636,-2.8408 -10.3935,-2.8408l-14.3643 0 0 21.8422zm-32.8222 -45.1583l60.9136 0c10.1479,0 17.9432,2.76022 23.3604,8.25444 5.4415,5.49394 8.16266,12.3012 8.16266,20.395 0,6.80727 -1.93666,12.6498 -5.80944,17.5272 -2.59824,3.24288 -6.3735,5.81572 -11.3493,7.69174 7.5497,1.98337 13.1141,5.41364 16.693,10.2378 3.55401,4.85067 5.34371,10.9344 5.34371,18.2508 0,5.97661 -1.27454,11.3367 -3.79957,16.1071 -2.54935,4.77036 -6.00556,8.5224 -10.4178,11.3097 -2.72061,1.71541 -6.83868,2.97492 -12.3542,3.75204 -7.32927,1.04536 -12.1827,1.58129 -14.5848,1.58129l-56.1583 0 0 -115.107zm-18.9651 -34.4179l124.411 0c16.0046,0 29.0991,13.0945 29.0991,29.0994l0 125.744c0,16.0049 -13.0945,29.0994 -29.0991,29.0994l-124.411 0c-16.0049,0 -29.0994,-13.0945 -29.0994,-29.0994l0 -125.744c0,-16.0049 13.0945,-29.0994 29.0994,-29.0994zm153.354 217.714c0,1.85417 0.33434,3.2336 1.01586,4.13036 0.67469,0.897037 1.53321,1.34911 2.56819,1.34911 0.910968,0 1.67116,-0.429398 2.28684,-1.29639 0.615962,-0.859069 0.923806,-2.32126 0.923806,-4.37893 0,-1.89951 -0.320956,-3.29396 -0.963141,-4.18335 -0.635629,-0.896764 -1.42177,-1.34146 -2.33902,-1.34146 -1.00275,0 -1.83477,0.45207 -2.49663,1.34911 -0.668408,0.897037 -0.995919,2.35923 -0.995919,4.37156zm-7.83651 20.5843l0 -32.3726 7.31233 0 0 3.46714c1.01559,-1.46219 1.93967,-2.44964 2.7848,-2.96208 1.14014,-0.693538 2.39829,-1.04017 3.78072,-1.04017 2.7258,0 4.83564,1.20597 6.32952,3.6029 1.48732,2.39665 2.23413,5.36638 2.23413,8.90127 0,3.89681 -0.812087,6.87392 -2.43708,8.93159 -1.62527,2.05029 -3.68266,3.07544 -6.15935,3.07544 -1.2057,0 -2.30651,-0.23382 -3.29587,-0.701186 -0.989363,-0.474741 -1.88039,-1.17565 -2.65997,-2.10274l0 11.2004 -7.88923 0zm-12.7508 -20.0566c-1.07459,0.444695 -2.19534,0.83667 -3.35488,1.17565 -1.58566,0.48239 -2.59496,0.96478 -3.01425,1.43215 -0.438685,0.490038 -0.655023,1.04017 -0.655023,1.65804 0,0.708561 0.216338,1.28136 0.641912,1.73371 0.432403,0.444695 1.06148,0.670866 1.89378,0.670866 0.871634,0 1.67744,-0.241195 2.43107,-0.723585 0.746803,-0.490038 1.27754,-1.08551 1.59194,-1.77878 0.3144,-0.700913 0.465454,-1.61297 0.465454,-2.72853l0 -1.43952zm-6.77504 -4.72584l-7.46311 -0.904686c0.281622,-1.49989 0.687802,-2.68319 1.21854,-3.54226 0.530738,-0.859342 1.29093,-1.6056 2.2934,-2.23877 0.714024,-0.459718 1.70339,-0.813999 2.95498,-1.06257 1.25159,-0.248843 2.60807,-0.376952 4.06917,-0.376952 2.33902,0 4.22624,0.150781 5.64145,0.452343 1.42177,0.301289 2.6078,0.93446 3.55127,1.89186 0.668408,0.663218 1.19259,1.59768 1.5791,2.8113 0.38023,1.221 0.570072,2.37425 0.570072,3.48217l0 10.3561c0,1.10054 0.0655569,1.96725 0.183559,2.59278 0.124558,0.625796 0.386786,1.4245 0.799248,2.39693l-7.332 0c-0.295006,-0.602851 -0.484848,-1.06284 -0.576628,-1.37943 -0.0917797,-0.316585 -0.176731,-0.813999 -0.268783,-1.49224 -1.02187,1.13823 -2.04428,1.94458 -3.05304,2.42697 -1.38271,0.648194 -2.98803,0.972428 -4.81598,0.972428 -2.43107,0 -4.27896,-0.648194 -5.54339,-1.94486 -1.25815,-1.28874 -1.88695,-2.88669 -1.88695,-4.78593 0,-1.78643 0.45207,-3.24862 1.36276,-4.39423 0.910695,-1.15326 2.58158,-2.00495 5.02549,-2.56273 2.93558,-0.678241 4.83564,-1.15326 5.70728,-1.4245 0.864805,-0.271242 1.78861,-0.633171 2.75858,-1.07022 0,-1.10819 -0.196671,-1.87684 -0.589739,-2.32154 -0.399897,-0.437319 -1.09425,-0.663218 -2.09673,-0.663218 -1.27781,0 -2.23467,0.241195 -2.87658,0.708288 -0.49796,0.369577 -0.904413,1.06284 -1.21198,2.07296zm-25.1676 -7.59013l7.31233 0 0 3.83645c0.707742,-1.65804 1.43488,-2.80392 2.18195,-3.42945 0.746803,-0.625522 1.67088,-0.942108 2.77142,-0.942108 1.15353,0 2.4114,0.414648 3.781,1.23602l-2.41796 6.40682c-0.917251,-0.444695 -1.65122,-0.663491 -2.18824,-0.663491 -1.02242,0 -1.81538,0.490038 -2.3789,1.45482 -0.805804,1.37178 -1.21198,3.93451 -1.21198,7.68792l0 7.86137 -7.84962 0 0 -23.4484zm-8.09874 -8.92394l0 8.92394 4.29835 0 0 6.55733 -4.29835 0 0 8.32109c0,1.00247 0.085224,1.66597 0.249116,1.98993 0.255399,0.497413 0.700913,0.753632 1.3431,0.753632 0.576628,0 1.38271,-0.195851 2.41796,-0.580179l0.576628 6.2107c-1.93311,0.48239 -3.73483,0.723585 -5.41227,0.723585 -1.94622,0 -3.3811,-0.286538 -4.29862,-0.859342 -0.923533,-0.572804 -1.60505,-1.44717 -2.04428,-2.61545 -0.445514,-1.16828 -0.661852,-3.06752 -0.661852,-5.69062l0 -8.25335 -2.88287 0 0 -6.55733 2.88287 0 0 -4.31119 7.83023 -4.61275zm-34.8258 25.8827l7.75812 -0.844046c0.320956,1.06257 0.76647,1.82385 1.3431,2.27619 0.576628,0.459718 1.3431,0.685889 2.30624,0.685889 1.04836,0 1.861,-0.256218 2.43763,-0.776303 0.445514,-0.376952 0.668408,-0.859342 0.668408,-1.43215 0,-0.648194 -0.295006,-1.14561 -0.87819,-1.49989 -0.425574,-0.248843 -1.54632,-0.55778 -3.36116,-0.927084 -2.71269,-0.550132 -4.59991,-1.04782 -5.65456,-1.51491 -1.05519,-0.467366 -1.94622,-1.25132 -2.66707,-2.35158 -0.727136,-1.10054 -1.08743,-2.35923 -1.08743,-3.77635 0,-1.54496 0.393068,-2.87904 1.17265,-3.9946 0.779854,-1.12321 1.85444,-1.95961 3.22376,-2.51001 1.36959,-0.550132 3.2041,-0.829022 5.51061,-0.829022 2.4308,0 4.22624,0.218523 5.38605,0.640546 1.15981,0.429671 2.12295,1.09289 2.89625,1.98993 0.773026,0.897037 1.41521,2.11039 1.93284,3.6406l-7.41067 0.844046c-0.196671,-0.753632 -0.511071,-1.30404 -0.963141,-1.65804 -0.615962,-0.475015 -1.35648,-0.708561 -2.22784,-0.708561 -0.87819,0 -1.52666,0.180828 -1.92655,0.542757 -0.40618,0.361656 -0.602578,0.798702 -0.602578,1.31141 0,0.580179 0.255399,1.00985 0.76647,1.30376 0.511071,0.294187 1.62499,0.55778 3.34176,0.798975 2.59469,0.339257 4.52753,0.806623 5.79196,1.40947 1.27126,0.603124 2.24095,1.46219 2.90964,2.5854 0.67469,1.11556 1.00876,2.34393 1.00876,3.68567 0,1.35676 -0.353734,2.67582 -1.06803,3.95691 -0.707742,1.28136 -1.82795,2.29886 -3.3546,3.05277 -1.53321,0.76128 -3.6171,1.13796 -6.25085,1.13796 -3.72172,0 -6.37569,-0.610499 -7.95479,-1.8315 -1.5791,-1.221 -2.59469,-2.96208 -3.04676,-5.20823zm-6.63764 -25.8827l0 8.92394 4.29862 0 0 6.55733 -4.29862 0 0 8.32109c0,1.00247 0.085224,1.66597 0.249116,1.98993 0.255672,0.497413 0.701186,0.753632 1.34337,0.753632 0.576628,0 1.38243,-0.195851 2.41796,-0.580179l0.576355 6.2107c-1.93284,0.48239 -3.73456,0.723585 -5.412,0.723585 -1.94622,0 -3.38137,-0.286538 -4.29862,-0.859342 -0.923806,-0.572804 -1.60533,-1.44717 -2.04428,-2.61545 -0.445514,-1.16828 -0.661852,-3.06752 -0.661852,-5.69062l0 -8.25335 -2.88287 0 0 -6.55733 2.88287 0 0 -4.31119 7.82996 -4.61275zm-28.7779 20.6895c0,2.09536 0.367119,3.6406 1.10737,4.63542 0.733965,1.00247 1.65777,1.50754 2.77169,1.50754 1.12703,0 2.05084,-0.497413 2.77169,-1.48486 0.727136,-0.987451 1.0877,-2.56273 1.0877,-4.74851 0,-2.02735 -0.366846,-3.54253 -1.09425,-4.53736 -0.727409,-0.987451 -1.63155,-1.48486 -2.70614,-1.48486 -1.14014,0 -2.08362,0.505062 -2.82414,1.50754 -0.740247,1.00985 -1.11392,2.54743 -1.11392,4.6051zm-7.82996 0.0226718c0,-3.57258 1.04836,-6.52729 3.14509,-8.84117 2.10329,-2.32154 4.93398,-3.48217 8.50492,-3.48217 4.08229,0 7.16838,1.36413 9.252,4.08529 1.67744,2.19315 2.51629,4.89902 2.51629,8.10994 0,3.6029 -1.04208,6.55733 -3.11914,8.86384 -2.07706,2.29886 -4.95337,3.45212 -8.62948,3.45212 -3.27621,0 -5.92334,-0.957404 -7.94796,-2.87194 -2.48324,-2.36661 -3.72172,-5.47182 -3.72172,-9.31591zm-18.3925 -0.0226718c0,2.09536 0.366846,3.6406 1.10737,4.63542 0.733965,1.00247 1.65777,1.50754 2.77169,1.50754 1.12703,0 2.05084,-0.497413 2.77169,-1.48486 0.727136,-0.987451 1.0877,-2.56273 1.0877,-4.74851 0,-2.02735 -0.366846,-3.54253 -1.09425,-4.53736 -0.727409,-0.987451 -1.63155,-1.48486 -2.70614,-1.48486 -1.14014,0 -2.08362,0.505062 -2.82414,1.50754 -0.740247,1.00985 -1.11392,2.54743 -1.11392,4.6051zm-7.82996 0.0226718c0,-3.57258 1.04836,-6.52729 3.14509,-8.84117 2.10329,-2.32154 4.93398,-3.48217 8.50492,-3.48217 4.08229,0 7.16838,1.36413 9.252,4.08529 1.67744,2.19315 2.51602,4.89902 2.51602,8.10994 0,3.6029 -1.04181,6.55733 -3.11887,8.86384 -2.07706,2.29886 -4.95337,3.45212 -8.62948,3.45212 -3.27621,0 -5.92334,-0.957404 -7.94796,-2.87194 -2.48324,-2.36661 -3.72172,-5.47182 -3.72172,-9.31591zm-20.312 4.70316l4.43575 0c1.50043,0 2.55535,-0.301289 3.16476,-0.911788 0.615962,-0.610772 0.92408,-1.43215 0.92408,-2.46467 0,-0.957404 -0.301562,-1.72606 -0.910968,-2.30651 -0.609406,-0.580452 -1.67088,-0.874366 -3.19754,-0.874366l-4.41608 0 0 6.55733zm0 -12.7153l3.78045 0c1.35648,0 2.29996,-0.271242 2.83725,-0.80635 0.530738,-0.542757 0.792966,-1.31906 0.792966,-2.32891 0,-0.942381 -0.262228,-1.68099 -0.792966,-2.20845 -0.537294,-0.535108 -1.4611,-0.798975 -2.77825,-0.798975l-3.83945 0 0 6.14268zm-8.7737 -12.7l16.2827 0c2.71242,0 4.79604,0.776303 6.24403,2.32126 1.45482,1.54523 2.18223,3.45977 2.18223,5.73596 0,1.91454 -0.5179,3.55756 -1.55315,4.92934 -0.69463,0.912061 -1.70339,1.63565 -3.03365,2.16311 2.01806,0.55778 3.50566,1.52256 4.46197,2.87932 0.950029,1.36413 1.42859,3.07517 1.42859,5.13283 0,1.68072 -0.340623,3.18825 -1.01559,4.52998 -0.681519,1.34146 -1.6056,2.39665 -2.7848,3.1806 -0.727136,0.48239 -1.82822,0.83667 -3.30216,1.05519 -1.95933,0.293914 -3.25654,0.444695 -3.89873,0.444695l-15.0114 0 0 -32.3723z"/>
  <path class="fil0" d="M435.625 99.8593l133.092 0 -2.85965 25.7693 -62.2837 26.8275 59.9477 0.144772 -6.91271 79.826 -53.4191 15.6867 -53.9856 -15.9642 -3.95909 -40.2077 27.2703 -0.0464362 1.65777 20.7466 28.7216 7.34019 29.7079 -8.41014 1.98638 -33.5583 -90.7363 -0.213606 -1.7755 -25.2345 63.5965 -26.6776 -65.9962 -0.120734 -4.05224 -25.9078zm-38.2074 -44.5702l209.506 0 -19.6851 213.725 -85.0104 23.6693 -85.8288 -23.6693 -18.982 -213.725z"/>
  <path class="fil0" d="M521.82 26.863l12.4774 -0.720034c0.267145,1.86865 0.820008,3.29069 1.64985,4.27513 1.34364,1.58593 3.28031,2.36988 5.7895,2.36988 1.86701,0 3.30953,-0.40099 4.32703,-1.21226 1.00766,-0.811267 1.51163,-1.7501 1.51163,-2.81676 0,-1.01176 -0.474468,-1.92328 -1.44253,-2.72553 -0.968331,-0.80198 -3.20082,-1.55862 -6.71767,-2.26964 -5.74989,-1.19423 -9.84993,-2.77115 -12.2998,-4.74905 -2.46986,-1.97818 -3.70479,-4.49393 -3.70479,-7.5568 0,-2.01451 0.632351,-3.91949 1.89678,-5.70619 1.2647,-1.78643 3.16148,-3.19044 5.70045,-4.2205 2.53869,-1.02078 6.01649,-1.5313 10.4326,-1.5313 5.42347,0 9.56312,0.929816 12.408,2.78945 2.84544,1.85936 4.5349,4.82199 5.0782,8.87832l-12.3591 0.665403c-0.325873,-1.75938 -1.0175,-3.04457 -2.0746,-3.84683 -1.047,-0.792966 -2.49936,-1.19396 -4.3467,-1.19396 -1.5313,0 -2.67718,0.291728 -3.44775,0.893213 -0.77084,0.592471 -1.15626,1.32179 -1.15626,2.17868 0,0.619786 0.316312,1.17593 0.948664,1.67716 0.622245,0.519539 2.08444,0.993461 4.40597,1.44034 5.72995,1.13932 9.82999,2.29695 12.3097,3.46386 2.47969,1.16664 4.28742,2.60698 5.41364,4.33878 1.12649,1.72278 1.69929,3.65535 1.69929,5.79742 0,2.50673 -0.76046,4.82199 -2.26226,6.93674 -1.50153,2.12404 -3.6059,3.72828 -6.31286,4.82199 -2.69712,1.09398 -6.10526,1.64084 -10.2151,1.64084 -7.21181,0 -12.2105,-1.27618 -14.9869,-3.84655 -2.7859,-2.56164 -4.3568,-5.81572 -4.72228,-9.77181zm-42.807 0l12.4774 -0.720034c0.267145,1.86865 0.820008,3.29069 1.64985,4.27513 1.34392,1.58593 3.28031,2.36988 5.7895,2.36988 1.86728,0 3.30953,-0.40099 4.32703,-1.21226 1.00766,-0.811267 1.51163,-1.7501 1.51163,-2.81676 0,-1.01176 -0.474195,-1.92328 -1.44225,-2.72553 -0.968604,-0.80198 -3.20082,-1.55862 -6.71795,-2.26964 -5.74989,-1.19423 -9.84966,-2.77115 -12.2998,-4.74905 -2.46986,-1.97818 -3.70479,-4.49393 -3.70479,-7.5568 0,-2.01451 0.632351,-3.91949 1.89678,-5.70619 1.2647,-1.78643 3.16148,-3.19044 5.70045,-4.2205 2.53897,-1.02078 6.01649,-1.5313 10.4326,-1.5313 5.42374,0 9.56312,0.929816 12.4083,2.78945 2.84517,1.85936 4.53463,4.82199 5.07793,8.87832l-12.3588 0.665403c-0.326146,-1.75938 -1.0175,-3.04457 -2.07488,-3.84683 -1.047,-0.792966 -2.49936,-1.19396 -4.3467,-1.19396 -1.5313,0 -2.67718,0.291728 -3.44775,0.893213 -0.770567,0.592471 -1.15599,1.32179 -1.15599,2.17868 0,0.619786 0.316039,1.17593 0.94839,1.67716 0.622245,0.519539 2.08444,0.993461 4.40597,1.44034 5.72995,1.13932 9.82999,2.29695 12.3097,3.46386 2.47969,1.16664 4.2877,2.60698 5.41364,4.33878 1.12649,1.72278 1.69956,3.65535 1.69956,5.79742 0,2.50673 -0.760734,4.82199 -2.26253,6.93674 -1.50153,2.12404 -3.6059,3.72828 -6.31286,4.82199 -2.69685,1.09398 -6.10526,1.64084 -10.2151,1.64084 -7.21181,0 -12.2105,-1.27618 -14.9869,-3.84655 -2.7859,-2.56164 -4.35653,-5.81572 -4.72228,-9.77181zm-15.5698 -3.04457l11.4897 3.20874c-0.770567,2.97164 -1.98583,5.45079 -3.64551,7.44727 -1.65968,1.99621 -3.72445,3.50019 -6.18448,4.51196 -2.46002,1.02105 -5.59146,1.52229 -9.38529,1.52229 -4.61357,0 -8.38746,-0.619786 -11.302,-1.85034 -2.92439,-1.23985 -5.45324,-3.41825 -7.57729,-6.53575 -2.11421,-3.11751 -3.18115,-7.10091 -3.18115,-11.9595 0,-6.48085 1.86701,-11.467 5.60157,-14.9399 3.73456,-3.48217 9.01982,-5.22325 15.8462,-5.22325 5.3448,0 9.54372,0.993734 12.6063,2.98994 3.0626,1.99621 5.3347,5.05908 6.81628,9.18835l-11.5782 2.3789c-0.405087,-1.19396 -0.829842,-2.06914 -1.27454,-2.62501 -0.73096,-0.920802 -1.62991,-1.63182 -2.68729,-2.13306 -1.06694,-0.501511 -2.25215,-0.747622 -3.5663,-0.747622 -2.96372,0 -5.24592,1.103 -6.82666,3.30899 -1.19532,1.64084 -1.7979,4.21121 -1.7979,7.7207 0,4.34806 0.721126,7.31971 2.14371,8.93323 1.43269,1.61325 3.43792,2.4155 6.01649,2.4155 2.50946,0 4.40625,-0.647102 5.69034,-1.95087 1.28464,-1.2942 2.21337,-3.18115 2.796,-5.66057z"/>
  <path class="fil0" d="M38.5499 99.6222l132.406 0 -2.41769 26.3856 -100.461 -0.139582 2.10984 26.7243 95.9453 -0.32997 -7.36232 80.352 -53.7832 15.2619 -53.6655 -14.6176 -4.03667 -42.2351 26.6087 -0.063918 1.87138 21.9681 29.3545 7.99385 29.3493 -8.05476 2.79819 -33.8476 -91.1195 0.103252 -7.59778 -79.5006zm-38.5499 -44.5702l209.506 0 -19.6851 213.725 -85.0104 23.6693 -85.8288 -23.6693 -18.982 -213.725z"/>
  <path class="fil0" d="M160.31 0.237098l12.2622 0 0 29.8156 19.1224 0 0 9.74504 -31.3846 0 0 -39.5606zm-52.4185 0l16.1218 0 6.22327 24.0679 6.19568 -24.0679 16.0664 0 0 39.5606 -10.0092 0 0 -30.1655 -7.76549 30.1655 -9.05778 0 -7.7379 -30.1655 0 30.1655 -10.0368 0 0 -39.5606zm-42.6584 0l37.2478 0 0 9.77263 -12.502 0 0 29.788 -12.2529 0 0 -29.788 -12.493 0 0 -9.77263zm-43.314 0l12.2526 0 0 13.844 13.3979 0 0 -13.844 12.3083 0 0 39.5606 -12.3083 0 0 -15.9992 -13.3979 0 0 15.9992 -12.2526 0 0 -39.5606z"/>
 </g>
</svg>
